<svg xmlns="http://www.w3.org/2000/svg" id="Layer_1" viewBox="0 0 1626.74 1113.88"><defs><style>.cls-1{stroke:#6d6e71}.cls-1,.cls-2{fill:none;stroke-miterlimit:10}.cls-3{fill:#6d6e71}.cls-4{fill:#0096FF}.cls-2{stroke:#000}</style></defs><path d="M110.1 991.03h1516.64m-1516.64 0v-21.92m94.79 21.92v-21.92m94.79 21.92v-21.92m94.79 21.92v-21.92m94.79 21.92v-21.92m94.79 21.92v-21.92m94.79 21.92v-21.92m94.79 21.92v-21.92m94.79 21.92v-21.92m94.79 21.92v-21.92m94.79 21.92v-21.92m94.79 21.92v-21.92m94.79 21.92v-21.92m94.79 21.92v-21.92m94.79 21.92v-21.92m94.79 21.92v-21.92m94.79 21.92v-21.92" class="cls-2"/><path d="M60 1000.94c0-10.945 3.696-17.33 12.001-17.33s12.001 6.385 12.001 17.33-3.696 17.33-12.001 17.33S60 1011.885 60 1000.94zm19.202 2.832v-5.665c0-6.432-2.016-10.56-7.201-10.56s-7.2 4.128-7.2 10.56v5.666c0 6.432 2.015 10.56 7.2 10.56s7.2-4.128 7.2-10.56zm-10.178-2.304v-1.056c0-1.296.768-2.305 2.977-2.305s2.976 1.01 2.976 2.305v1.056c0 1.296-.768 2.305-2.976 2.305s-2.977-1.01-2.977-2.305zM54.722 842.305H32.064v-4.609l11.041-9.84c3.36-2.93 5.52-5.857 5.52-9.122v-.527c0-3.793-2.112-5.953-5.952-5.953-3.936 0-5.904 2.257-6.864 5.52l-4.129-1.536c1.344-4.08 4.512-8.016 11.185-8.016 6.817 0 10.657 4.08 10.657 9.793 0 5.137-3.216 8.88-7.777 12.768l-8.785 7.538h17.762v3.984zM60 825.55c0-10.943 3.696-17.328 12.001-17.328s12.001 6.384 12.001 17.329-3.696 17.33-12.001 17.33S60 836.496 60 825.55zm19.202 2.834v-5.665c0-6.433-2.016-10.56-7.201-10.56s-7.2 4.127-7.2 10.56v5.665c0 6.432 2.015 10.56 7.2 10.56s7.2-4.128 7.2-10.56zm-10.178-2.305v-1.056c0-1.295.768-2.304 2.977-2.304s2.976 1.008 2.976 2.304v1.056c0 1.296-.768 2.305-2.976 2.305s-2.977-1.009-2.977-2.305zM46.61 666.917v-6.528H30.335v-4.081L44.64 633.41h6.433v23.235h4.8v3.744h-4.8v6.528h-4.465zm-12.242-10.273H46.61v-19.297h-.24l-12 19.297zM60 650.163c0-10.944 3.696-17.329 12.001-17.329s12.001 6.385 12.001 17.33-3.696 17.33-12.001 17.33S60 661.107 60 650.163zm19.202 2.833v-5.665c0-6.433-2.016-10.56-7.201-10.56s-7.2 4.127-7.2 10.56v5.665c0 6.433 2.015 10.56 7.2 10.56s7.2-4.127 7.2-10.56zm-10.178-2.305v-1.055c0-1.296.768-2.305 2.977-2.305s2.976 1.009 2.976 2.305v1.055c0 1.296-.768 2.305-2.976 2.305s-2.977-1.009-2.977-2.305zM31.632 479.143c0-9.84 6.625-17.521 12.145-21.121h6.096c-7.488 5.328-11.665 9.744-13.44 17.28l.24.097c1.584-2.688 3.936-4.849 8.16-4.849 5.808 0 9.985 3.985 9.985 10.37 0 6.576-4.56 11.185-11.521 11.185-7.249 0-11.665-4.945-11.665-12.962zm18.482 2.353v-.432c0-4.32-2.545-6.77-6.865-6.77s-6.865 2.45-6.865 6.77v.432c0 4.272 2.497 6.768 6.865 6.768 4.32 0 6.865-2.496 6.865-6.768zM60 474.775c0-10.945 3.696-17.33 12.001-17.33s12.001 6.385 12.001 17.33-3.696 17.33-12.001 17.33S60 485.72 60 474.775zm19.202 2.832v-5.665c0-6.432-2.016-10.56-7.201-10.56s-7.2 4.128-7.2 10.56v5.665c0 6.432 2.015 10.56 7.2 10.56s7.2-4.127 7.2-10.56zm-10.178-2.304v-1.056c0-1.296.768-2.305 2.977-2.305s2.976 1.009 2.976 2.305v1.056c0 1.296-.768 2.304-2.976 2.304s-2.977-1.008-2.977-2.304zM31.248 307.02c0-4.513 2.784-7.201 6.816-8.257v-.385c-3.504-1.2-5.808-3.984-5.808-7.824 0-5.089 4.033-8.497 10.945-8.497s10.945 3.408 10.945 8.497c0 3.84-2.304 6.625-5.809 7.824v.385c4.032 1.056 6.817 3.744 6.817 8.257 0 5.52-4.128 9.696-11.953 9.696s-11.953-4.176-11.953-9.697zm19.058.191v-1.056c0-3.6-2.593-5.712-7.105-5.712s-7.104 2.112-7.104 5.712v1.056c0 3.553 2.688 5.713 7.104 5.713s7.105-2.16 7.105-5.713zm-.768-15.553v-.672c0-3.216-2.305-5.136-6.337-5.136s-6.337 1.92-6.337 5.136v.672c0 3.264 2.257 5.136 6.337 5.136s6.337-1.872 6.337-5.136zM60 299.387c0-10.945 3.696-17.33 12.001-17.33s12.001 6.385 12.001 17.33-3.696 17.33-12.001 17.33S60 310.331 60 299.386zm19.202 2.832v-5.664c0-6.433-2.016-10.561-7.201-10.561s-7.2 4.128-7.2 10.56v5.665c0 6.432 2.015 10.56 7.2 10.56s7.2-4.128 7.2-10.56zm-10.178-2.304v-1.057c0-1.295.768-2.303 2.977-2.303s2.976 1.008 2.976 2.303v1.057c0 1.296-.768 2.304-2.976 2.304s-2.977-1.008-2.977-2.304zM4.128 140.752v-3.937h9.505v-26.162h-.336l-8.112 8.065-2.785-2.736 8.689-8.737h7.2v29.57h8.497v3.937H4.128zM31.2 123.999c0-10.945 3.696-17.33 12.001-17.33s12.001 6.385 12.001 17.33-3.696 17.33-12 17.33-12.002-6.386-12.002-17.33zm19.202 2.832v-5.665c0-6.432-2.016-10.56-7.2-10.56S36 114.733 36 121.165v5.665c0 6.432 2.016 10.56 7.2 10.56s7.2-4.128 7.2-10.56zm-10.177-2.305v-1.055c0-1.297.768-2.305 2.976-2.305s2.976 1.008 2.976 2.305v1.055c0 1.297-.768 2.305-2.976 2.305s-2.976-1.008-2.976-2.305zM60 123.999c0-10.945 3.696-17.33 12-17.33s12.002 6.385 12.002 17.33-3.697 17.33-12.001 17.33-12.002-6.386-12.002-17.33zm19.2 2.831v-5.665c0-6.432-2.016-10.56-7.2-10.56s-7.201 4.128-7.201 10.56v5.665c0 6.432 2.016 10.56 7.2 10.56s7.201-4.128 7.201-10.56zm-10.177-2.305v-1.055c0-1.297.768-2.305 2.976-2.305s2.977 1.008 2.977 2.305v1.055c0 1.297-.768 2.305-2.976 2.305s-2.977-1.008-2.977-2.305z" class="cls-3"/><path d="M110.1 991.03V114.09m0 876.94h37.91" class="cls-2"/><path d="M110.1 815.64h37.91M110.1 640.26h37.91M110.1 464.87h37.91M110.1 289.48h37.91" class="cls-1"/><path d="M110.1 114.09h37.91" class="cls-2"/><path d="M123.37 228.09h68.25v762.94h-68.25zm94.79 8.77h68.25v754.17h-68.25zm94.79-78.92h68.25v833.09h-68.25zm94.79 26.31h68.25v806.79h-68.25zm94.79 52.61h68.25v754.17h-68.25zm94.79 114.01h68.25v640.17h-68.25zm94.79 43.84h68.25v596.32h-68.25zm94.79 43.85h68.25v552.47H786.9zm94.79-236.77h68.25v789.25h-68.25zm94.79 105.23h68.25v684.01h-68.25zm94.79-8.77h68.25v692.78h-68.25zm94.79 245.54h68.25v447.24h-68.25zm94.79-87.69h68.25v534.93h-68.25zm94.79-184.16h68.25v719.09h-68.25zm94.79 70.16h68.25v648.94h-68.25zm94.79 175.39h68.25v473.55h-68.25z" class="cls-4"/><path d="M1585.124 1080.476l-11.329 19.621-3.991-2.304-3.002-14.482c-.856-4.375-2.312-7.71-5.139-9.341l-.456-.264c-3.285-1.897-6.212-1.147-8.133 2.179-1.968 3.409-.997 6.242 1.35 8.705l-3.396 2.808c-2.86-3.205-4.686-7.917-1.35-13.696 3.409-5.903 8.862-7.188 13.81-4.332 4.448 2.568 6.083 7.225 7.17 13.119l2.135 11.376 8.88-15.382 3.45 1.993zm-11.942-38.266l-7.56 13.095 10.269 6.983.192-.333c-1.286-2.571-1.68-4.96.144-8.12 2.904-5.03 8.414-6.893 14.067-3.63 5.696 3.29 7.545 9.4 3.848 15.803-2.928 5.071-6.935 6.25-10.544 6.55l-.558-4.314c3.15-.176 5.725-.796 7.741-4.288 2.209-3.825 1.164-7.2-2.453-9.288l-.332-.192c-3.618-2.088-7.028-1.174-9.212 2.61-1.536 2.66-1.206 4.68-.63 6.564l-2.402 3.103-15.447-10.304 9.385-16.255 3.492 2.016zm29.893 7.173l-29.018-16.753 10.657-18.458 3.45 1.992-8.328 14.426 9.145 5.28 7.609-13.178 3.45 1.992-7.608 13.178 12.97 7.489-2.327 4.032zm-112.493 30.949l-11.329 19.621-3.99-2.304-3.002-14.482c-.857-4.375-2.312-7.71-5.14-9.341l-.456-.264c-3.285-1.897-6.212-1.147-8.132 2.179-1.968 3.409-.998 6.242 1.349 8.705l-3.395 2.807c-2.861-3.204-4.686-7.916-1.35-13.695 3.408-5.903 8.862-7.188 13.81-4.332 4.448 2.568 6.082 7.225 7.169 13.119l2.135 11.376 8.88-15.382 3.451 1.993zm10.344-17.916l-5.654-3.264-8.137 14.093-3.534-2.04-12.677-23.839 3.216-5.57 20.122 11.617 2.4-4.157 3.242 1.872-2.4 4.157 5.654 3.264-2.232 3.867zm-15.017 5.465l6.12-10.602-16.712-9.648-.12.208 10.712 20.042zm22.624-18.641l-29.017-16.754 10.656-18.458 3.45 1.992-8.328 14.426 9.146 5.28 7.608-13.178 3.45 1.992-7.608 13.178 12.971 7.489-2.328 4.032zm-112.991 31.235l-11.328 19.622-3.991-2.304-3.002-14.482c-.857-4.374-2.312-7.71-5.139-9.342l-.457-.264c-3.284-1.896-6.211-1.147-8.132 2.18-1.968 3.409-.997 6.241 1.349 8.704l-3.395 2.808c-2.86-3.204-4.686-7.916-1.35-13.695 3.409-5.903 8.862-7.189 13.81-4.332 4.448 2.568 6.083 7.225 7.17 13.119l2.134 11.375 8.88-15.38 3.451 1.991zm-8.934-23.503c2.232-3.866 1.423-6.883-1.154-8.37l-.29-.169c-2.911-1.68-5.626-.53-7.378 2.504-1.704 2.951-1.353 5.703.13 8.223l-3.942 1.549c-1.493-3.08-2.31-7.043.451-11.824 3.024-5.238 8.007-7.627 12.705-4.915 3.741 2.16 4.545 5.951 3.47 9.542l.167.096c2.52-2.924 6.552-4.531 10.833-2.06 5.03 2.905 6.13 8.971 2.553 15.166-3.024 5.238-7.08 6.5-10.712 6.84l-.535-4.354c3.127-.135 5.797-.92 7.862-4.496 2.208-3.825 1.568-7.132-1.675-9.004l-.333-.192c-3.201-1.849-6.296-.808-8.648 3.265l-1.896 3.284-3.408-1.967 1.8-3.118zm26.885-7.588l-29.018-16.754 10.657-18.458 3.45 1.993-8.328 14.425 9.146 5.28 7.608-13.178 3.45 1.993-7.608 13.178 12.971 7.489-2.328 4.032zM1301 1080.331l-11.328 19.622-3.99-2.304-3.003-14.482c-.856-4.374-2.311-7.71-5.139-9.342l-.456-.264c-3.285-1.896-6.212-1.147-8.132 2.18-1.969 3.409-.998 6.241 1.349 8.704l-3.395 2.808c-2.861-3.205-4.686-7.916-1.35-13.695 3.408-5.903 8.862-7.189 13.809-4.332 4.449 2.568 6.083 7.225 7.17 13.118l2.135 11.376 8.88-15.381 3.45 1.992zm14.4-24.941l-11.328 19.622-3.99-2.305-3.003-14.482c-.856-4.374-2.311-7.709-5.139-9.341l-.456-.264c-3.285-1.896-6.212-1.147-8.132 2.18-1.969 3.408-.998 6.24 1.348 8.704l-3.394 2.808c-2.862-3.205-4.687-7.917-1.35-13.696 3.408-5.903 8.861-7.188 13.809-4.332 4.448 2.569 6.083 7.226 7.17 13.12l2.135 11.375 8.88-15.381 3.45 1.992zm3.551-6.15l-29.017-16.754 10.656-18.458 3.451 1.993-8.329 14.425 9.146 5.28 7.608-13.178 3.451 1.993-7.608 13.178 12.97 7.488-2.328 4.033zm-112.74 31.092l-11.329 19.621-3.99-2.304-3.003-14.482c-.856-4.375-2.311-7.71-5.138-9.341l-.457-.264c-3.285-1.897-6.212-1.147-8.132 2.179-1.968 3.409-.998 6.242 1.349 8.705l-3.395 2.807c-2.861-3.204-4.686-7.916-1.35-13.695 3.408-5.903 8.862-7.188 13.81-4.332 4.448 2.568 6.082 7.225 7.169 13.119l2.135 11.376 8.88-15.382 3.451 1.993zm3.503-6.068l-3.41-1.968 4.753-8.231-22.657-13.082-.168.291 2.928 11.058-3.762 1.043-3.221-11.893 3.6-6.236 25.609 14.785 4.248-7.358 3.409 1.969-11.33 19.622zm14.448-25.024l-29.018-16.754 10.657-18.458 3.45 1.992-8.328 14.426 9.146 5.28 7.608-13.178 3.45 1.992-7.608 13.178 12.971 7.489-2.328 4.032zm-112.992 31.236l-11.328 19.621-3.991-2.304-3.002-14.482c-.856-4.375-2.312-7.71-5.139-9.341l-.457-.264c-3.284-1.897-6.211-1.147-8.132 2.179-1.968 3.409-.997 6.242 1.35 8.705l-3.396 2.808c-2.86-3.205-4.686-7.917-1.35-13.696 3.409-5.903 8.862-7.188 13.81-4.332 4.448 2.568 6.083 7.225 7.17 13.119l2.135 11.376 8.88-15.382 3.45 1.993zm-11.87-12.948c-9.478-5.473-13.159-11.866-9.007-19.058s11.53-7.2 21.008-1.729 13.16 11.866 9.008 19.058-11.53 7.201-21.009 1.729zm12.054-15.213l-4.906-2.832c-5.57-3.216-10.153-3.535-12.746.955s-.025 8.3 5.546 11.517l4.906 2.832c5.57 3.217 10.154 3.534 12.746-.956s.025-8.3-5.546-11.516zm-7.084 7.661l-.914-.527c-1.122-.648-1.612-1.818-.508-3.73s2.362-2.074 3.485-1.426l.914.528c1.122.648 1.611 1.818.507 3.73s-2.362 2.073-3.484 1.425zm24.852-10.593l-29.018-16.753 10.657-18.458 3.45 1.992-8.328 14.426 9.145 5.28 7.609-13.178 3.45 1.992-7.608 13.178 12.97 7.489-2.327 4.032zm-123.509 49.615l-3.41-1.969 4.753-8.231-22.657-13.081-.168.29 2.928 11.058-3.762 1.043-3.221-11.892 3.6-6.237 25.609 14.786 4.248-7.358 3.409 1.968-11.33 19.623zm19.248-33.34l-3.048 5.28c-.87-9.15-2.607-14.975-8.245-20.281l-.204.16c1.536 2.716 2.23 5.833.119 9.49-2.904 5.031-8.443 6.656-13.973 3.464-5.695-3.288-7.405-9.542-3.925-15.57 3.624-6.277 10.114-7.63 17.057-3.622 8.522 4.92 11.862 14.498 12.22 21.08zm-16.258-17.923l-.374-.216c-3.7-2.136-7.11-1.222-9.294 2.56-2.16 3.742-1.27 7.194 2.43 9.33l.373.216c3.741 2.16 7.134 1.18 9.294-2.561s1.312-7.169-2.43-9.329zm25.857 1.297l-29.017-16.753 10.656-18.458 3.451 1.992-8.329 14.425 9.146 5.28 7.608-13.177 3.451 1.992-7.608 13.178 12.97 7.489-2.328 4.032zm-123.886 50.11l-3.41-1.968 4.753-8.232-22.657-13.08-.168.29 2.928 11.058-3.762 1.043-3.222-11.893 3.6-6.236 25.61 14.785 4.248-7.358 3.409 1.969-11.33 19.622zm5.661-28.047c-3.908-2.256-4.844-6.011-3.743-10.032l-.332-.192c-2.792 2.435-6.355 3.039-9.68 1.119-4.408-2.545-5.343-7.74-1.887-13.728s8.425-7.775 12.832-5.23c3.325 1.92 4.584 5.308 3.871 8.942l.333.192c2.931-2.963 6.651-4.03 10.559-1.775 4.78 2.76 6.333 8.425 2.421 15.2s-9.594 8.264-14.374 5.504zm9.695-16.408l-.914-.528c-3.118-1.8-6.244-.612-8.5 3.296s-1.723 7.209 1.395 9.01l.914.527c3.076 1.776 6.292.528 8.5-3.296s1.681-7.233-1.395-9.01zm-13.854-7.111l-.582-.336c-2.785-1.608-5.6-.574-7.617 2.918s-1.504 6.449 1.28 8.057l.582.335c2.828 1.633 5.577.614 7.617-2.92s1.547-6.422-1.28-8.055zm27.346 1.6l-29.018-16.754 10.657-18.458 3.45 1.992-8.328 14.426 9.145 5.28 7.609-13.178 3.45 1.992-7.608 13.179 12.97 7.488-2.327 4.033zm-123.639 49.966l-3.41-1.969 4.753-8.231-22.657-13.081-.168.29 2.928 11.059-3.762 1.043-3.222-11.893 3.6-6.236 25.61 14.785 4.247-7.358 3.41 1.968-11.33 19.623zm16.44-28.475l-19.2-25.885-6.985 12.097 5.363 3.097-2.04 3.533-8.772-5.064 11.353-19.664 3.533 2.04 19.22 25.564-2.472 4.282zm12.407-21.49l-29.018-16.754 10.658-18.459 3.45 1.992-8.329 14.426 9.146 5.28 7.609-13.178 3.45 1.992-7.608 13.179 12.97 7.489-2.328 4.033zm-123.887 50.109l-3.409-1.969 4.753-8.231-22.658-13.081-.168.29 2.928 11.059-3.762 1.043-3.221-11.893 3.6-6.236 25.608 14.785 4.249-7.358 3.409 1.968-11.329 19.622zm3.027-30.012c-8.523-4.92-11.862-14.498-12.22-21.079l3.048-5.28c.87 9.15 2.607 14.975 8.245 20.281l.204-.159c-1.536-2.716-2.23-5.833-.119-9.492 2.905-5.03 8.443-6.655 13.972-3.463 5.696 3.289 7.407 9.542 3.926 15.57-3.624 6.278-10.114 7.63-17.057 3.622zm11.277-14.83l-.374-.215c-3.741-2.16-7.134-1.181-9.294 2.56s-1.312 7.17 2.43 9.33l.373.216c3.7 2.136 7.11 1.222 9.294-2.561 2.16-3.742 1.27-7.193-2.43-9.33zm14.543-5.124l-29.017-16.753 10.657-18.458 3.45 1.992-8.328 14.425 9.146 5.28 7.608-13.178 3.45 1.992-7.608 13.179 12.971 7.489-2.328 4.033zm-123.637 49.966l-3.41-1.969 4.753-8.231-22.657-13.081-.168.29 2.927 11.059-3.761 1.043-3.222-11.893 3.6-6.236 25.609 14.785 4.248-7.358 3.41 1.968-11.33 19.622zm-1.046-57.139l-7.56 13.095 10.27 6.982.191-.332c-1.286-2.572-1.68-4.961.144-8.12 2.904-5.03 8.414-6.894 14.068-3.63 5.696 3.289 7.544 9.4 3.848 15.802-2.929 5.072-6.936 6.25-10.545 6.55l-.558-4.313c3.15-.176 5.726-.796 7.742-4.288 2.208-3.825 1.163-7.2-2.454-9.288l-.332-.192c-3.617-2.088-7.027-1.174-9.211 2.609-1.537 2.66-1.206 4.68-.63 6.565l-2.403 3.103-15.446-10.304 9.385-16.255 3.492 2.016zm29.893 7.173l-29.017-16.753 10.656-18.458 3.45 1.992-8.328 14.425 9.146 5.28 7.609-13.178 3.45 1.992-7.608 13.179 12.97 7.489-2.328 4.032zm-123.388 49.821l-3.41-1.968 4.753-8.231-22.657-13.081-.168.29 2.927 11.059-3.761 1.043-3.222-11.893 3.6-6.236 25.609 14.785 4.248-7.358 3.41 1.968-11.33 19.622zm21.24-36.789l-5.654-3.264-8.136 14.093-3.535-2.04-12.677-23.838 3.217-5.57 20.121 11.616 2.4-4.157 3.243 1.872-2.4 4.157 5.653 3.265-2.232 3.866zm-15.017 5.465l6.12-10.601-16.711-9.65-.12.209 10.711 20.042zm22.624-18.641l-29.018-16.753 10.657-18.458 3.45 1.992-8.328 14.425 9.146 5.28 7.609-13.178 3.45 1.992-7.608 13.179 12.97 7.489-2.328 4.032zm-123.638 49.965l-3.409-1.968 4.752-8.231-22.657-13.081-.168.29 2.928 11.059-3.762 1.043-3.222-11.893 3.6-6.236 25.61 14.785 4.248-7.358 3.409 1.968-11.33 19.622zm1.962-42.376c2.232-3.866 1.423-6.883-1.154-8.37l-.29-.169c-2.91-1.68-5.625-.531-7.377 2.504-1.705 2.951-1.354 5.704.13 8.223l-3.943 1.549c-1.493-3.08-2.309-7.043.451-11.824 3.025-5.238 8.007-7.627 12.705-4.915 3.742 2.16 4.546 5.95 3.47 9.542l.167.097c2.52-2.925 6.552-4.532 10.834-2.06 5.03 2.904 6.128 8.97 2.552 15.165-3.024 5.238-7.08 6.5-10.712 6.841l-.535-4.355c3.127-.135 5.798-.92 7.862-4.496 2.208-3.825 1.568-7.132-1.675-9.004l-.333-.192c-3.2-1.848-6.295-.809-8.648 3.266l-1.896 3.284-3.408-1.968 1.8-3.118zm26.886-7.589l-29.018-16.753 10.657-18.459 3.45 1.993-8.328 14.425 9.145 5.28 7.609-13.178 3.45 1.992-7.608 13.179 12.97 7.489-2.327 4.032zm-123.389 49.821l-3.41-1.968 4.753-8.231-22.657-13.081-.168.29 2.928 11.059-3.762 1.043-3.222-11.893 3.6-6.236 25.61 14.785 4.248-7.358 3.409 1.968-11.33 19.622zm25.297-43.815l-11.33 19.623-3.99-2.305-3.002-14.482c-.856-4.374-2.312-7.709-5.139-9.341l-.457-.264c-3.284-1.896-6.211-1.147-8.131 2.179-1.968 3.408-.998 6.241 1.348 8.705l-3.394 2.807c-2.861-3.204-4.687-7.916-1.35-13.695 3.408-5.903 8.862-7.189 13.809-4.333 4.449 2.569 6.083 7.226 7.17 13.12l2.135 11.376 8.88-15.382 3.451 1.992zm3.55-6.15l-29.017-16.753 10.657-18.458 3.45 1.992-8.328 14.425 9.145 5.28 7.609-13.178 3.45 1.992-7.608 13.179 12.97 7.489-2.328 4.032zm-123.887 50.109l-3.409-1.968 4.753-8.231-22.657-13.081-.168.29 2.927 11.059-3.761 1.043-3.222-11.893 3.6-6.236 25.609 14.785 4.248-7.358 3.41 1.968-11.33 19.622zm14.4-24.941l-3.409-1.968 4.753-8.232-22.657-13.08-.168.29 2.927 11.058-3.762 1.043-3.221-11.892 3.6-6.236 25.609 14.785 4.248-7.358 3.41 1.968-11.33 19.622zm14.448-25.024l-29.018-16.753 10.657-18.458 3.45 1.992-8.328 14.425 9.146 5.28 7.608-13.178 3.451 1.992-7.609 13.179 12.971 7.489-2.328 4.032zm-123.638 49.965l-3.41-1.968 4.753-8.231-22.657-13.081-.168.29 2.928 11.059-3.762 1.043-3.222-11.893 3.6-6.236 25.61 14.785 4.248-7.358 3.409 1.968-11.33 19.622zm-.974-31.821c-9.478-5.472-13.159-11.865-9.007-19.057s11.53-7.201 21.008-1.73 13.16 11.867 9.008 19.06-11.53 7.2-21.009 1.727zm12.055-15.212l-4.906-2.833c-5.571-3.216-10.154-3.534-12.747.956s-.025 8.3 5.546 11.516l4.906 2.832c5.57 3.217 10.154 3.535 12.746-.955s.025-8.3-5.545-11.516zm-7.085 7.66l-.914-.527c-1.122-.648-1.612-1.817-.508-3.73s2.362-2.073 3.484-1.425l.915.528c1.122.648 1.611 1.817.507 3.73s-2.361 2.073-3.484 1.425zm24.852-10.592l-29.018-16.753 10.656-18.459 3.451 1.993-8.328 14.425 9.145 5.28 7.609-13.178 3.45 1.992-7.608 13.179 12.97 7.489-2.327 4.032z" class="cls-3"/><path d="M15.248 14.974h-.432v25.778h-4.704V7.245h6.912l9.841 25.778h.432V7.245H32v33.507h-6.91l-9.841-25.778zm39.744 21.554h-.24c-1.056 2.592-3.072 4.8-7.152 4.8-4.993 0-8.353-3.408-8.353-9.409V15.982h5.233V31.15c0 3.936 1.776 5.905 5.136 5.905 2.688 0 5.376-1.392 5.376-4.273v-16.8h5.233v24.77h-5.233v-4.224zm11.375 4.224v-24.77h4.464v3.216h.24c.768-2.112 2.064-3.792 4.752-3.792 2.592 0 4.033 1.536 4.417 4.032h.192c.864-2.256 2.352-4.032 5.328-4.032 3.793 0 5.136 2.784 5.136 7.92v17.426h-4.464V23.998c0-3.408-.768-4.56-2.64-4.56-1.68 0-2.928 1.104-2.928 3.36v17.954h-4.465V23.999c0-3.409-.72-4.56-2.592-4.56-1.728 0-2.976 1.103-2.976 3.36v17.953h-4.465zm30.48-35.523h5.232v14.977h.288c1.44-2.976 3.84-4.8 7.488-4.8 5.81 0 9.554 4.464 9.554 12.96s-3.745 12.962-9.554 12.962c-3.647 0-6.048-1.824-7.488-4.8h-.288v4.224h-5.232V5.229zm17.041 25.154v-4.032c0-4.033-2.256-6.673-6.193-6.673-3.024 0-5.616 1.536-5.616 4.56v8.257c0 3.024 2.592 4.56 5.616 4.56 3.937 0 6.193-2.64 6.193-6.672zm10.846-1.968c0-7.969 4.608-13.01 11.665-13.01 6.96 0 11.377 4.993 11.377 12.29v1.968h-17.762v.816c0 3.888 2.593 6.625 6.865 6.625 3.168 0 5.472-1.488 6.865-3.793l3.264 2.88c-1.68 2.88-5.137 5.137-10.225 5.137-7.585 0-12.05-5.04-12.05-12.913zm5.28-2.448v.336h12.433v-.48c0-3.889-2.4-6.433-6.048-6.433-3.745 0-6.385 2.736-6.385 6.577zm24.287 10.561h6.577V20.206h-6.577v-4.224h11.81v6.577h.287c.96-3.457 3.12-6.577 8.161-6.577h2.976v4.992h-4.896c-4.273 0-6.529 2.833-6.529 6.289v9.265h7.057v4.224h-18.866v-4.224zm56.592-8.161c0-7.92 4.464-12.961 11.76-12.961s11.761 5.04 11.761 12.96-4.464 12.962-11.76 12.962-11.761-5.04-11.761-12.961zm18.05 1.872v-3.744c0-4.609-2.497-6.96-6.29-6.96s-6.288 2.351-6.288 6.96v3.744c0 4.609 2.496 6.96 6.289 6.96s6.288-2.351 6.288-6.96zm11.853 6.289h7.92V20.206h-8.4v-4.224h8.4v-4.465c0-3.696 2.017-6.288 6.337-6.288h8.353v4.224h-9.457v6.529h9.457v4.224h-9.457v16.322h8.353v4.224h-21.506v-4.224zm56.687.048l3.216-2.88c2.16 2.351 4.801 3.648 8.497 3.648 3.36 0 5.665-1.104 5.665-3.553 0-2.112-1.68-2.688-3.793-2.976l-3.936-.624c-3.888-.576-8.256-1.968-8.256-7.057 0-5.04 4.224-7.728 10.56-7.728 4.608 0 7.921 1.44 10.177 3.888l-2.928 3.072c-1.296-1.488-3.553-2.976-7.44-2.976-3.409 0-5.233 1.152-5.233 3.313 0 2.112 1.728 2.688 3.792 2.976l3.936.624c3.937.576 8.257 1.92 8.257 7.009 0 4.992-4.128 8.016-10.897 8.016-5.328 0-9.264-1.872-11.617-4.752zm41.857 4.176c-4.32 0-6.337-2.592-6.337-6.289V20.206h-7.632v-4.224h5.424c1.825 0 2.544-.624 2.544-2.544V7.245h4.897v8.737h10.56v4.224h-10.56v16.322h10.56v4.224h-9.456zm32.448-4.224h-.24c-1.056 2.592-3.072 4.8-7.153 4.8-4.992 0-8.352-3.408-8.352-9.409V15.982h5.232V31.15c0 3.936 1.776 5.905 5.136 5.905 2.689 0 5.377-1.392 5.377-4.273v-16.8h5.232v24.77h-5.232v-4.224zm29.039 0h-.288c-1.44 2.976-3.84 4.8-7.489 4.8-5.808 0-9.553-4.464-9.553-12.961s3.745-12.961 9.553-12.961c3.649 0 6.049 1.824 7.489 4.8h.288V5.23h5.232v35.523h-5.232v-4.224zm0-4.033V24.24c0-3.025-2.592-4.56-5.617-4.56-3.936 0-6.192 2.64-6.192 6.672v4.032c0 4.033 2.256 6.673 6.192 6.673 3.025 0 5.617-1.536 5.617-4.56zm11.903-4.08c0-7.969 4.608-13.01 11.664-13.01 6.96 0 11.377 4.993 11.377 12.29v1.968H418.01v.816c0 3.888 2.592 6.625 6.864 6.625 3.168 0 5.473-1.488 6.865-3.793l3.264 2.88c-1.68 2.88-5.136 5.137-10.225 5.137-7.584 0-12.049-5.04-12.049-12.913zm5.28-2.448v.336h12.433v-.48c0-3.889-2.4-6.433-6.048-6.433-3.745 0-6.385 2.736-6.385 6.577zm24.671 14.785v-24.77h5.233v4.224h.24c1.056-2.592 3.072-4.8 7.152-4.8 4.993 0 8.353 3.408 8.353 9.408v15.938h-5.232v-15.17c0-3.936-1.777-5.904-5.137-5.904-2.688 0-5.377 1.392-5.377 4.273v16.801h-5.232zm40.656 0c-4.32 0-6.336-2.592-6.336-6.289V20.206h-7.632v-4.224h5.424c1.824 0 2.544-.624 2.544-2.544V7.245h4.896v8.737h10.561v4.224h-10.56v16.322h10.56v4.224h-9.457zm15.743-4.176l3.216-2.88c2.16 2.351 4.8 3.648 8.497 3.648 3.36 0 5.665-1.104 5.665-3.553 0-2.112-1.68-2.688-3.793-2.976l-3.936-.624c-3.889-.576-8.257-1.968-8.257-7.057 0-5.04 4.224-7.728 10.56-7.728 4.61 0 7.922 1.44 10.178 3.888l-2.929 3.072c-1.295-1.488-3.552-2.976-7.44-2.976-3.408 0-5.232 1.152-5.232 3.313 0 2.112 1.728 2.688 3.792 2.976l3.936.624c3.937.576 8.257 1.92 8.257 7.009 0 4.992-4.129 8.016-10.897 8.016-5.329 0-9.265-1.872-11.617-4.752zm58.416-.048h6.576V20.206h-6.576v-4.224h11.809v6.577h.287c.96-3.457 3.12-6.577 8.161-6.577h2.976v4.992h-4.896c-4.272 0-6.528 2.833-6.528 6.289v9.265h7.056v4.224h-18.865v-4.224zm28.031-8.113c0-7.969 4.608-13.01 11.665-13.01 6.96 0 11.377 4.993 11.377 12.29v1.968h-17.762v.816c0 3.888 2.592 6.625 6.865 6.625 3.168 0 5.472-1.488 6.865-3.793l3.264 2.88c-1.68 2.88-5.137 5.137-10.225 5.137-7.585 0-12.05-5.04-12.05-12.913zm5.28-2.448v.336h12.433v-.48c0-3.889-2.4-6.433-6.048-6.433-3.745 0-6.385 2.736-6.385 6.577zm34.992 24.962c-8.545 0-11.521-2.256-11.521-5.953 0-2.688 1.584-4.08 4.32-4.8v-.48c-1.68-.624-2.736-1.728-2.736-3.6 0-2.448 1.872-3.552 4.465-4.177v-.24c-2.977-1.392-4.753-4.032-4.753-7.584 0-5.281 3.985-8.69 10.08-8.69 1.73 0 3.313.289 4.658.817v-.816c0-1.92 1.104-3.36 3.312-3.36h4.512v4.128h-5.76v1.152c2.16 1.488 3.36 3.792 3.36 6.769 0 5.28-3.984 8.64-10.081 8.64-1.104 0-2.112-.096-3.072-.288-1.152.288-2.592 1.056-2.592 2.4 0 1.537 1.68 1.729 3.84 1.729h5.568c6.673 0 9.41 2.784 9.41 6.864 0 5.089-4.273 7.489-13.01 7.489zm3.456-9.889h-8.592c-1.2.576-1.825 1.488-1.825 2.784 0 1.872 1.44 3.408 5.089 3.408h3.888c3.936 0 6.097-1.2 6.097-3.456 0-1.68-1.152-2.736-4.657-2.736zm1.345-16.321v-1.297c0-2.64-1.585-4.416-4.945-4.416s-4.944 1.776-4.944 4.416v1.297c0 2.64 1.584 4.416 4.944 4.416s4.945-1.776 4.945-4.416zm14.494 11.809h8.449V20.206h-8.449v-4.224h13.681v20.546h7.92v4.224h-21.6v-4.224zm7.488-27.89v-1.01c0-1.583.96-2.831 3.553-2.831 2.64 0 3.6 1.248 3.6 2.832v1.008c0 1.584-.96 2.832-3.552 2.832-2.64 0-3.6-1.248-3.6-2.832zm19.295 27.938l3.217-2.88c2.16 2.351 4.8 3.648 8.497 3.648 3.36 0 5.664-1.104 5.664-3.553 0-2.112-1.68-2.688-3.792-2.976l-3.937-.624c-3.888-.576-8.256-1.968-8.256-7.057 0-5.04 4.224-7.728 10.56-7.728 4.609 0 7.921 1.44 10.177 3.888l-2.928 3.072c-1.296-1.488-3.552-2.976-7.44-2.976-3.408 0-5.233 1.152-5.233 3.313 0 2.112 1.728 2.688 3.793 2.976l3.936.624c3.936.576 8.257 1.92 8.257 7.009 0 4.992-4.129 8.016-10.897 8.016-5.329 0-9.265-1.872-11.617-4.752zm41.857 4.176c-4.32 0-6.337-2.592-6.337-6.289V20.206h-7.632v-4.224h5.424c1.825 0 2.544-.624 2.544-2.544V7.245h4.897v8.737h10.56v4.224h-10.56v16.322h10.56v4.224h-9.456zm15.79-12.337c0-7.969 4.609-13.01 11.665-13.01 6.96 0 11.377 4.993 11.377 12.29v1.968h-17.761v.816c0 3.888 2.592 6.625 6.864 6.625 3.168 0 5.473-1.488 6.865-3.793l3.264 2.88c-1.68 2.88-5.136 5.137-10.225 5.137-7.584 0-12.049-5.04-12.049-12.913zm5.28-2.448v.336h12.434v-.48c0-3.889-2.4-6.433-6.049-6.433-3.744 0-6.384 2.736-6.384 6.577zm24.288 10.561h6.577V20.206h-6.577v-4.224h11.81v6.577h.287c.96-3.457 3.12-6.577 8.161-6.577h2.976v4.992h-4.896c-4.273 0-6.529 2.833-6.529 6.289v9.265h7.057v4.224h-18.866v-4.224zm28.032-8.113c0-7.969 4.608-13.01 11.665-13.01 6.96 0 11.377 4.993 11.377 12.29v1.968h-17.762v.816c0 3.888 2.593 6.625 6.865 6.625 3.168 0 5.472-1.488 6.864-3.793l3.265 2.88c-1.68 2.88-5.137 5.137-10.225 5.137-7.585 0-12.049-5.04-12.049-12.913zm5.28-2.448v.336h12.433v-.48c0-3.889-2.4-6.433-6.048-6.433-3.745 0-6.385 2.736-6.385 6.577zm40.416 10.561h-.287c-1.44 2.976-3.84 4.8-7.49 4.8-5.808 0-9.552-4.464-9.552-12.961s3.744-12.961 9.553-12.961c3.648 0 6.048 1.824 7.489 4.8h.288V5.23h5.232v35.523h-5.232v-4.224zm0-4.033V24.24c0-3.025-2.592-4.56-5.616-4.56-3.936 0-6.192 2.64-6.192 6.672v4.032c0 4.033 2.256 6.673 6.192 6.673 3.024 0 5.617-1.536 5.617-4.56zm42.671 4.033h8.448V20.206h-8.448v-4.224h13.68v20.546h7.922v4.224H875.49v-4.224zm7.489-27.89v-1.01c0-1.583.96-2.831 3.551-2.831 2.64 0 3.6 1.248 3.6 2.832v1.008c0 1.584-.96 2.832-3.55 2.832-2.642 0-3.602-1.248-3.602-2.832zm20.495 32.114v-24.77h5.232v4.224h.24c1.056-2.592 3.072-4.8 7.152-4.8 4.993 0 8.353 3.408 8.353 9.408v15.938h-5.232v-15.17c0-3.936-1.777-5.904-5.137-5.904-2.688 0-5.376 1.392-5.376 4.273v16.801h-5.233zm57.165-4.224h8.21V9.453h-8.21V5.23h13.442v31.299h8.209v4.224h-21.65v-4.224zm28.08-8.113c0-7.969 4.61-13.01 11.666-13.01 6.96 0 11.377 4.993 11.377 12.29v1.968H994v.816c0 3.888 2.593 6.625 6.865 6.625 3.168 0 5.472-1.488 6.864-3.793l3.265 2.88c-1.68 2.88-5.137 5.137-10.226 5.137-7.584 0-12.048-5.04-12.048-12.913zm5.281-2.448v.336h12.434v-.48c0-3.889-2.4-6.433-6.05-6.433-3.743 0-6.384 2.736-6.384 6.577zm31.824 14.785l-8.88-24.77h5.424l3.408 10.465 3.216 9.937h.288l3.217-9.937 3.408-10.465h5.233l-8.881 24.77h-6.433zm20.495-12.337c0-7.969 4.609-13.01 11.665-13.01 6.96 0 11.377 4.993 11.377 12.29v1.968h-17.761v.816c0 3.888 2.591 6.625 6.864 6.625 3.168 0 5.473-1.488 6.865-3.793l3.264 2.88c-1.68 2.88-5.137 5.137-10.225 5.137-7.585 0-12.049-5.04-12.049-12.913zm5.28-2.448v.336h12.433v-.48c0-3.889-2.4-6.433-6.048-6.433-3.745 0-6.384 2.736-6.384 6.577zm24.239 10.561h8.209V9.453h-8.21V5.23h13.442v31.299h8.21v4.224h-21.651v-4.224zm58.224 4.224v-4.464h9.409V11.18h-.384l-7.776 8.305-3.313-2.976 8.545-9.265h8.305v29.043h8.112v4.464h-22.898zm56.254-12.337c0-7.969 4.609-13.01 11.665-13.01 6.961 0 11.377 4.993 11.377 12.29v1.968h-17.76v.816c0 3.888 2.591 6.625 6.864 6.625 3.168 0 5.473-1.488 6.864-3.793l3.265 2.88c-1.68 2.88-5.137 5.137-10.225 5.137-7.585 0-12.05-5.04-12.05-12.913zm5.282-2.448v.336h12.432v-.48c0-3.889-2.4-6.433-6.049-6.433-3.744 0-6.383 2.736-6.383 6.577zm44.256 14.785c-2.976 0-4.464-1.68-4.752-4.176h-.24c-.96 2.976-3.552 4.752-7.441 4.752-5.04 0-8.305-2.832-8.305-7.489 0-4.8 3.505-7.392 10.85-7.392h4.752v-1.92c0-3.313-1.777-5.04-5.328-5.04-3.168 0-5.041 1.343-6.385 3.408l-3.12-2.545c1.391-2.688 4.752-4.944 9.984-4.944 6.241 0 10.081 3.12 10.081 8.785v12.433h3.12v4.128h-3.215zm-5.136-7.393v-3.6h-4.656c-3.84 0-5.664 1.2-5.664 3.409v.96c0 2.208 1.727 3.36 4.511 3.36 3.36 0 5.809-1.68 5.809-4.128zm13.871-4.992c0-7.92 4.416-12.961 11.713-12.961 5.088 0 8.112 2.4 9.648 5.856l-4.08 2.208c-.864-2.304-2.688-3.744-5.568-3.744-3.937 0-6.242 2.64-6.242 6.577v4.128c0 3.888 2.257 6.577 6.337 6.577 3.073 0 4.945-1.536 6.097-3.937l3.84 2.352c-1.584 3.457-4.8 5.905-9.985 5.905-7.392 0-11.76-5.04-11.76-12.961zm29.278-23.138h5.233v14.977h.24c1.056-2.592 3.072-4.8 7.152-4.8 4.992 0 8.353 3.408 8.353 9.408v15.938h-5.233v-15.17c0-3.935-1.775-5.904-5.136-5.904-2.688 0-5.377 1.392-5.377 4.273v16.801h-5.232V5.23zm57.312 31.299h7.92V20.206h-8.4v-4.224h8.4v-4.465c0-3.696 2.017-6.288 6.338-6.288h8.352v4.224h-9.457v6.529h9.457v4.224h-9.457v16.322h8.352v4.224h-21.505v-4.224zm48.673 4.224c-2.976 0-4.464-1.68-4.752-4.176h-.24c-.96 2.976-3.552 4.752-7.441 4.752-5.04 0-8.305-2.832-8.305-7.489 0-4.8 3.505-7.392 10.85-7.392h4.752v-1.92c0-3.313-1.777-5.04-5.328-5.04-3.168 0-5.041 1.343-6.385 3.408l-3.12-2.545c1.391-2.688 4.752-4.944 9.984-4.944 6.241 0 10.081 3.12 10.081 8.785v12.433h3.12v4.128h-3.215zm-5.136-7.393v-3.6h-4.656c-3.84 0-5.664 1.2-5.664 3.409v.96c0 2.208 1.727 3.36 4.511 3.36 3.36 0 5.809-1.68 5.809-4.128zm13.919 3.169h8.208V9.453h-8.208V5.23h13.44v31.299h8.21v4.224h-21.65v-4.224zm28.799 0h8.208V9.453h-8.208V5.23h13.44v31.299h8.209v4.224h-21.65v-4.224zm35.423 1.392v-1.25c0-1.823 1.153-3.312 4.177-3.312s4.176 1.489 4.176 3.312v1.249c0 1.824-1.151 3.312-4.176 3.312s-4.177-1.488-4.177-3.312zM130.708 205.309c0-4.416 2.737-7.105 6.721-8.161v-.384c-3.408-1.2-5.712-3.792-5.712-7.68 0-5.137 4.128-8.69 11.377-8.69s11.377 3.553 11.377 8.69c0 3.888-2.304 6.48-5.713 7.68v.384c3.985 1.056 6.72 3.745 6.72 8.16 0 5.57-4.415 9.746-12.384 9.746s-12.386-4.177-12.386-9.745zm18.242.048v-.96c0-3.024-2.064-4.849-5.856-4.849s-5.857 1.825-5.857 4.849v.96c0 2.976 2.112 4.8 5.857 4.8s5.856-1.824 5.856-4.8zm-.432-14.978v-.671c0-2.737-1.92-4.417-5.424-4.417s-5.425 1.68-5.425 4.417v.671c0 2.785 1.92 4.513 5.425 4.513s5.424-1.728 5.424-4.513zm16.991 24.098l11.953-28.37h-11.953v6.144h-5.377v-11.28h23.57v5.472l-11.569 28.034h-6.624zm59.99-9.168c0-4.416 2.736-7.105 6.72-8.161v-.384c-3.408-1.2-5.712-3.792-5.712-7.68 0-5.137 4.129-8.69 11.377-8.69s11.377 3.553 11.377 8.69c0 3.888-2.304 6.48-5.712 7.68v.384c3.984 1.056 6.72 3.745 6.72 8.16 0 5.57-4.416 9.746-12.385 9.746s-12.385-4.177-12.385-9.745zm18.242.048v-.96c0-3.024-2.065-4.849-5.857-4.849s-5.856 1.825-5.856 4.849v.96c0 2.976 2.112 4.8 5.856 4.8s5.857-1.824 5.857-4.8zm-.432-14.978v-.671c0-2.737-1.92-4.417-5.425-4.417s-5.424 1.68-5.424 4.417v.671c0 2.785 1.92 4.513 5.424 4.513s5.425-1.728 5.425-4.513zM254.49 201.9c0-9.6 6.482-17.185 12.194-20.93h8.544c-8.016 5.617-12.672 10.081-14.209 16.994l.384.096c1.297-2.592 3.457-4.944 7.777-4.944 5.665 0 9.937 4.032 9.937 10.417 0 6.768-4.848 11.52-12.289 11.52-7.777 0-12.337-5.136-12.337-13.153zm18.146 2.4v-.575c0-3.697-2.112-5.76-5.856-5.76-3.648 0-5.808 2.063-5.808 5.76v.576c0 3.696 2.064 5.808 5.808 5.808 3.792 0 5.856-2.112 5.856-5.808zm60.039-55.1h-8.545c8.017-5.617 12.673-10.081 14.209-16.994l-.384-.096c-1.296 2.593-3.456 4.945-7.776 4.945-5.665 0-9.938-4.033-9.938-10.417 0-6.769 4.849-11.521 12.29-11.521 7.776 0 12.336 5.136 12.336 13.153 0 9.6-6.48 17.185-12.192 20.93zm5.712-22.754v-.576c0-3.697-2.064-5.809-5.809-5.809-3.792 0-5.856 2.112-5.856 5.809v.576c0 3.696 2.112 5.76 5.856 5.76 3.649 0 5.809-2.064 5.809-5.76zm33.553-5.281h-15.362l-.816 11.233h.384c1.488-2.832 3.505-4.752 7.441-4.752 5.664 0 10.225 3.888 10.225 10.56s-4.56 11.57-12.577 11.57c-6.29 0-9.65-2.977-11.713-6.193l4.56-3.6c1.584 2.592 3.504 4.608 7.248 4.608 3.84 0 5.904-2.256 5.904-5.856v-.385c0-3.503-2.16-5.616-5.856-5.616-2.832 0-4.464 1.296-5.568 2.496l-5.137-.72 1.249-18.817h20.018v5.472zm60.85 54.424h-8.545c8.017-5.617 12.673-10.081 14.21-16.994l-.385-.095c-1.296 2.592-3.456 4.944-7.776 4.944-5.665 0-9.937-4.032-9.937-10.417 0-6.769 4.848-11.521 12.289-11.521 7.776 0 12.337 5.137 12.337 13.153 0 9.6-6.48 17.186-12.193 20.93zm5.712-22.754v-.576c0-3.696-2.064-5.809-5.808-5.809-3.793 0-5.857 2.113-5.857 5.809v.576c0 3.696 2.113 5.76 5.857 5.76 3.648 0 5.808-2.064 5.808-5.76zm35.088 22.754h-23.617v-5.857l10.752-9.168c3.553-3.073 5.28-5.425 5.28-8.257v-.48c0-3.168-1.92-4.897-5.088-4.897-3.503 0-5.232 2.209-6.048 4.993l-5.473-2.064c1.44-4.417 5.09-8.353 12.05-8.353 7.152 0 11.233 4.176 11.233 9.937 0 5.472-3.697 9.073-8.545 12.96l-7.297 5.906h16.754v5.28zm42.648 43.336c0-4.416 2.736-7.104 6.72-8.16v-.384c-3.408-1.2-5.712-3.793-5.712-7.68 0-5.137 4.128-8.69 11.377-8.69S540 197.563 540 202.701c0 3.887-2.304 6.48-5.712 7.68v.384c3.984 1.056 6.72 3.744 6.72 8.16 0 5.57-4.416 9.745-12.385 9.745s-12.385-4.176-12.385-9.745zm18.241.049v-.96c0-3.025-2.064-4.849-5.856-4.849s-5.856 1.824-5.856 4.848v.96c0 2.977 2.111 4.8 5.856 4.8s5.856-1.823 5.856-4.8zm-.432-14.978v-.672c0-2.736-1.92-4.416-5.424-4.416s-5.425 1.68-5.425 4.416v.672c0 2.784 1.92 4.513 5.425 4.513s5.424-1.729 5.424-4.513zm11.183 11.521c0-9.6 6.48-17.185 12.193-20.93h8.544c-8.016 5.617-12.673 10.081-14.209 16.994l.384.096c1.296-2.593 3.457-4.945 7.777-4.945 5.665 0 9.937 4.033 9.937 10.417 0 6.77-4.849 11.521-12.29 11.521-7.776 0-12.336-5.136-12.336-13.153zm18.145 2.4v-.576c0-3.696-2.112-5.76-5.856-5.76-3.648 0-5.809 2.064-5.809 5.76v.576c0 3.697 2.064 5.81 5.809 5.81 3.792 0 5.856-2.113 5.856-5.81zm47.286 120.172l11.953-28.37h-11.953v6.144h-5.376v-11.281h23.57v5.472l-11.57 28.035h-6.624zm33.84-19.969c3.985 0 5.857-1.825 5.857-4.225v-.336c0-2.736-1.968-4.369-5.136-4.369-3.025 0-5.377 1.489-7.01 4.033l-4.08-3.649c2.353-3.12 5.57-5.568 11.282-5.568 6.816 0 11.52 3.36 11.52 8.737 0 4.272-2.976 6.912-6.528 7.632v.24c3.936.72 7.153 3.457 7.153 8.21 0 5.903-4.993 9.84-12.673 9.84-6.433 0-9.793-2.977-11.953-6.193l4.656-3.6c1.584 2.688 3.552 4.608 7.392 4.608s6-1.872 6-4.992v-.384c0-3.073-2.351-4.753-6.432-4.753h-3.36v-5.232h3.312zm60.467 52.152c0-9.601 6.48-17.186 12.193-20.93h8.545c-8.017 5.616-12.673 10.08-14.21 16.993l.384.096c1.297-2.592 3.457-4.944 7.777-4.944 5.665 0 9.937 4.032 9.937 10.417 0 6.768-4.848 11.52-12.289 11.52-7.777 0-12.337-5.136-12.337-13.152zm18.145 2.4v-.576c0-3.697-2.112-5.76-5.856-5.76-3.648 0-5.808 2.063-5.808 5.76v.576c0 3.696 2.064 5.808 5.808 5.808 3.792 0 5.856-2.112 5.856-5.808zm10.463 1.008c0-4.416 2.736-7.105 6.72-8.16v-.385c-3.408-1.2-5.712-3.792-5.712-7.68 0-5.137 4.128-8.69 11.377-8.69s11.377 3.553 11.377 8.69c0 3.888-2.304 6.48-5.712 7.68v.384c3.984 1.056 6.72 3.745 6.72 8.16 0 5.57-4.416 9.746-12.385 9.746s-12.385-4.177-12.385-9.745zm18.241.048v-.96c0-3.024-2.064-4.848-5.856-4.848s-5.856 1.824-5.856 4.848v.96c0 2.976 2.111 4.8 5.856 4.8s5.856-1.824 5.856-4.8zm-.432-14.978v-.671c0-2.737-1.92-4.417-5.424-4.417s-5.425 1.68-5.425 4.417v.671c0 2.785 1.92 4.513 5.425 4.513s5.424-1.728 5.424-4.512zm43.049 55.65c0-9.6 6.48-17.185 12.193-20.93h8.544c-8.017 5.617-12.673 10.081-14.21 16.994l.385.096c1.297-2.592 3.457-4.944 7.777-4.944 5.664 0 9.936 4.032 9.936 10.417 0 6.768-4.848 11.52-12.289 11.52-7.776 0-12.336-5.136-12.336-13.153zm18.145 2.4v-.575c0-3.697-2.112-5.76-5.856-5.76-3.649 0-5.809 2.063-5.809 5.76v.576c0 3.696 2.065 5.808 5.809 5.808 3.792 0 5.856-2.112 5.856-5.808zm21.503-9.792c3.984 0 5.856-1.824 5.856-4.224v-.337c0-2.736-1.967-4.368-5.135-4.368-3.025 0-5.377 1.488-7.01 4.032l-4.08-3.648c2.352-3.12 5.57-5.569 11.281-5.569 6.816 0 11.522 3.36 11.522 8.737 0 4.273-2.977 6.913-6.53 7.633v.24c3.937.72 7.154 3.456 7.154 8.209 0 5.904-4.993 9.84-12.673 9.84-6.433 0-9.793-2.976-11.953-6.192l4.656-3.6c1.584 2.688 3.552 4.608 7.392 4.608s6-1.872 6-4.993v-.384c0-3.072-2.351-4.752-6.432-4.752h-3.36v-5.232h3.312zm67.336-216.141h-8.545c8.017-5.617 12.673-10.081 14.21-16.994l-.385-.096c-1.296 2.593-3.456 4.945-7.776 4.945-5.665 0-9.938-4.033-9.938-10.417 0-6.769 4.849-11.521 12.29-11.521 7.776 0 12.336 5.136 12.336 13.153 0 9.6-6.48 17.185-12.192 20.93zm5.712-22.754v-.576c0-3.697-2.064-5.809-5.809-5.809-3.792 0-5.856 2.112-5.856 5.809v.576c0 3.696 2.112 5.76 5.856 5.76 3.649 0 5.809-2.064 5.809-5.76zm10.414 6c0-10.944 3.936-17.33 12.674-17.33s12.673 6.386 12.673 17.33-3.937 17.33-12.673 17.33-12.674-6.385-12.674-17.33zm18.962 2.976v-5.952c0-5.76-1.68-9.313-6.288-9.313s-6.29 3.553-6.29 9.313v5.952c0 5.761 1.681 9.313 6.29 9.313s6.288-3.552 6.288-9.313zm-9.265-2.448v-1.056c0-1.296.768-2.304 2.977-2.304s2.975 1.008 2.975 2.304v1.056c0 1.297-.767 2.304-2.975 2.304s-2.977-1.007-2.977-2.304zm62.582 123.609l11.953-28.371h-11.953v6.144h-5.377v-11.28h23.57v5.472l-11.569 28.034h-6.624zm22.799-9.17c0-4.415 2.736-7.104 6.72-8.16v-.384c-3.407-1.2-5.711-3.792-5.711-7.68 0-5.137 4.128-8.69 11.377-8.69s11.377 3.553 11.377 8.69c0 3.888-2.305 6.48-5.713 7.68v.384c3.984 1.056 6.72 3.745 6.72 8.16 0 5.57-4.415 9.746-12.384 9.746s-12.386-4.177-12.386-9.745zm18.242.049v-.96c0-3.024-2.064-4.849-5.856-4.849s-5.856 1.825-5.856 4.849v.96c0 2.976 2.11 4.8 5.856 4.8s5.856-1.824 5.856-4.8zm-.432-14.978v-.671c0-2.737-1.92-4.417-5.424-4.417s-5.425 1.68-5.425 4.417v.671c0 2.785 1.92 4.513 5.425 4.513s5.424-1.728 5.424-4.513zm54.181 15.329l11.953-28.37h-11.953v6.144h-5.377v-11.28h23.57v5.472l-11.569 28.034h-6.624zm35.185 0h-8.545c8.017-5.616 12.673-10.08 14.209-16.993l-.384-.096c-1.296 2.592-3.456 4.944-7.776 4.944-5.665 0-9.938-4.032-9.938-10.417 0-6.768 4.849-11.52 12.29-11.52 7.776 0 12.336 5.136 12.336 13.153 0 9.6-6.48 17.185-12.192 20.93zm5.712-22.753v-.577c0-3.696-2.064-5.808-5.809-5.808-3.792 0-5.856 2.112-5.856 5.808v.577c0 3.696 2.112 5.76 5.856 5.76 3.649 0 5.809-2.064 5.809-5.76zm70.744 237.775h-15.361l-.817 11.232h.384c1.488-2.832 3.505-4.752 7.441-4.752 5.664 0 10.225 3.888 10.225 10.56s-4.56 11.57-12.577 11.57c-6.29 0-9.65-2.976-11.713-6.193l4.56-3.6c1.585 2.592 3.504 4.609 7.249 4.609 3.84 0 5.904-2.257 5.904-5.857v-.385c0-3.504-2.16-5.616-5.857-5.616-2.832 0-4.463 1.296-5.568 2.496l-5.137-.72 1.25-18.817h20.017v5.472zm8.302 28.034V527.4h9.216v-23.81h-.431l-7.297 8.641-3.937-3.312 8.305-9.889h9.649v28.37h7.585v5.137h-23.09zm63.83-100.077c0-9.6 6.48-17.186 12.193-20.93h8.544c-8.017 5.616-12.673 10.08-14.209 16.994l.384.096c1.297-2.593 3.457-4.945 7.777-4.945 5.664 0 9.937 4.033 9.937 10.417 0 6.769-4.849 11.521-12.29 11.521-7.776 0-12.336-5.136-12.336-13.153zm18.145 2.4v-.576c0-3.696-2.112-5.76-5.856-5.76-3.649 0-5.809 2.064-5.809 5.76v.576c0 3.697 2.065 5.809 5.809 5.809 3.792 0 5.856-2.112 5.856-5.809zm12.815 10.177V439.9h9.217v-23.81h-.432l-7.297 8.64-3.937-3.312 8.305-9.889h9.649v28.37h7.585v5.137h-23.09zm63.638-195.28c0-4.416 2.737-7.105 6.721-8.16v-.384c-3.408-1.2-5.712-3.793-5.712-7.681 0-5.137 4.128-8.69 11.377-8.69s11.377 3.553 11.377 8.69c0 3.888-2.305 6.48-5.713 7.68v.384c3.985 1.057 6.721 3.745 6.721 8.16 0 5.57-4.416 9.746-12.385 9.746s-12.385-4.176-12.385-9.745zm18.243.048v-.96c0-3.024-2.065-4.848-5.857-4.848s-5.856 1.824-5.856 4.848v.96c0 2.976 2.111 4.8 5.856 4.8s5.857-1.824 5.857-4.8zm-.433-14.977v-.672c0-2.737-1.92-4.417-5.424-4.417s-5.425 1.68-5.425 4.417v.672c0 2.784 1.92 4.512 5.425 4.512s5.424-1.728 5.424-4.512zm35.376 24.098h-23.617v-5.857l10.753-9.169c3.551-3.072 5.28-5.424 5.28-8.256v-.48c0-3.168-1.92-4.897-5.089-4.897-3.504 0-5.232 2.209-6.048 4.993l-5.473-2.064c1.44-4.417 5.09-8.353 12.05-8.353 7.151 0 11.233 4.176 11.233 9.937 0 5.472-3.697 9.073-8.545 12.96l-7.297 5.906h16.754v5.28zm42.28 69.191l11.952-28.37h-11.953v6.144h-5.376v-11.28h23.57v5.471l-11.569 28.035h-6.625zm37.632 0v-6.48h-15.505v-5.377l13.68-21.65h7.826v22.13h4.512v4.897h-4.512v6.48h-6.001zm-10.37-11.377h10.37v-15.985h-.384l-9.985 15.985zm89.703 162.759h-15.361l-.817 11.234h.384c1.488-2.833 3.505-4.753 7.441-4.753 5.665 0 10.225 3.889 10.225 10.561s-4.56 11.57-12.577 11.57c-6.29 0-9.65-2.977-11.713-6.194l4.56-3.6c1.585 2.593 3.505 4.609 7.249 4.609 3.84 0 5.904-2.257 5.904-5.857v-.384c0-3.504-2.16-5.616-5.856-5.616-2.832 0-4.464 1.296-5.569 2.496l-5.137-.72 1.25-18.818h20.017v5.472zm20.783 28.035v-6.48h-15.506v-5.377l13.682-21.65h7.824v22.13h4.513v4.897h-4.513v6.48h-6zm-10.369-11.377h10.37v-15.985h-.386l-9.984 15.985z"/></svg>