<svg xmlns="http://www.w3.org/2000/svg" id="Layer_1" viewBox="0 0 251.16 43.57" width="251.16" height="43.57"><defs><style>.cls-1{fill:#fff}</style></defs><path d="M67.97 0h2.77v39.63h-2.77zm16.731 14.388l1.947-2.314c1.49 1.284 3.183 2.062 5.177 2.062 1.694 0 2.564-.778 2.564-1.764 0-1.122-.916-1.466-3.32-2.015-3.322-.756-5.68-1.695-5.68-4.742 0-2.908 2.38-4.9 5.816-4.9 2.566 0 4.56.8 6.162 2.175l-1.764 2.428c-1.397-1.123-2.978-1.74-4.488-1.74-1.444 0-2.314.755-2.314 1.694 0 1.145.939 1.512 3.366 2.061 3.39.756 5.635 1.764 5.635 4.673 0 3-2.268 4.993-6.115 4.993-2.726 0-5.153-.916-6.986-2.611zm14.476-3.596c0-3.367 2.955-6.184 6.482-6.184 1.9 0 3.504.778 4.626 2.015l-2.221 1.902c-.573-.665-1.512-1.1-2.428-1.1-1.74 0-3.206 1.535-3.206 3.344 0 1.855 1.466 3.413 3.206 3.413.94 0 1.901-.458 2.496-1.146l2.222 1.878c-1.145 1.283-2.77 2.085-4.74 2.085-3.482 0-6.437-2.84-6.437-6.207zm24.279-1.603v7.535h-3.206V9.899c0-1.466-.94-2.474-2.267-2.474-1.397 0-2.474 1.008-2.474 2.29v7.009h-3.344V.714h3.344v5.612c.733-1.054 2.04-1.718 3.55-1.718 2.589 0 4.397 1.878 4.397 4.58zm1.628 1.603c0-3.413 2.91-6.184 6.46-6.184s6.458 2.771 6.458 6.184S135.093 17 131.543 17s-6.459-2.795-6.459-6.207zm9.711 0c0-1.855-1.466-3.367-3.252-3.367s-3.252 1.512-3.252 3.367 1.466 3.39 3.252 3.39 3.252-1.534 3.252-3.39zm4.353 0c0-3.413 2.909-6.184 6.459-6.184s6.459 2.771 6.459 6.184-2.91 6.207-6.46 6.207-6.458-2.795-6.458-6.207zm9.71 0c0-1.855-1.465-3.367-3.251-3.367s-3.252 1.512-3.252 3.367 1.465 3.39 3.252 3.39 3.252-1.534 3.252-3.39zM153.786.715h3.344v16.009h-3.344V.714zm11.567 10.077c0-3.413 2.909-6.184 6.459-6.184s6.459 2.771 6.459 6.184S175.36 17 171.81 17s-6.458-2.795-6.458-6.207zm9.71 0c0-1.855-1.465-3.367-3.251-3.367s-3.252 1.512-3.252 3.367 1.466 3.39 3.252 3.39 3.252-1.534 3.252-3.39zm9.463-5.909h2.565v2.702h-2.565v9.139h-3.23V7.585h-1.626V4.883h1.626v-1.03c0-2.131 1.466-3.62 3.573-3.62.939 0 2.016.413 2.702 1.03l-.801 2.04c-.229-.23-.687-.39-1.145-.39-.619 0-1.1.55-1.1 1.328v.642zm-98.84 19.013h3.367l4.878 8.886 4.855-8.886h3.39V39.63h-3.39v-9.803l-4.855 8.887-4.878-8.887v9.803h-3.367V23.896zM113.7 36.149l1.877 1.923c-1.053 1.1-3.091 1.832-4.833 1.832-3.526 0-6.343-2.588-6.343-6.23 0-3.571 2.702-6.16 6.16-6.16 3.71 0 5.955 2.68 5.955 7.077h-8.932c.298 1.603 1.42 2.725 3.046 2.725 1.076 0 2.314-.48 3.07-1.168zm-6.093-3.55h5.703c-.275-1.466-1.214-2.496-2.726-2.496-1.488 0-2.611.984-2.977 2.496zm22.813-8.979v16.01h-3.344v-1.672c-.939 1.214-2.336 1.946-3.985 1.946-3.161 0-5.429-2.564-5.429-6.206 0-3.619 2.268-6.184 5.43-6.184 1.647 0 3.045.733 3.983 1.947v-5.84h3.345zm-3.344 10.078c0-1.97-1.237-3.367-3.023-3.367-1.833 0-3.139 1.398-3.139 3.367 0 1.993 1.306 3.39 3.139 3.39 1.786 0 3.023-1.397 3.023-3.39zm5.911-9.368c0-.938.801-1.786 1.832-1.786.984 0 1.81.848 1.81 1.786 0 1.008-.826 1.833-1.81 1.833a1.824 1.824 0 0 1-1.832-1.833zm.136 3.46h3.345v11.84h-3.345V27.79zm16.331 4.763v7.077h-3.23v-1.191c-.847.94-2.197 1.465-3.503 1.465-2.52 0-4.443-1.51-4.443-3.778 0-2.337 2.175-3.94 4.901-3.94.962 0 2.038.207 3.046.619v-.252c0-1.26-.802-2.36-2.748-2.36-1.1 0-2.13.368-3.07.848l-1.122-2.222c1.672-.847 3.298-1.305 4.948-1.305 3.092 0 5.222 1.947 5.222 5.039zm-3.23 3.344V34.82c-.755-.298-1.647-.458-2.564-.458-1.214 0-2.199.71-2.199 1.671s.87 1.558 2.016 1.558c1.282 0 2.496-.596 2.748-1.695zm22.037 4.099l-1.672-1.74c-1.305 1.054-2.794 1.648-4.58 1.648-3.023 0-5.291-1.694-5.291-4.557 0-2.062 1.008-3.366 3.413-4.444-.825-1.213-1.123-2.038-1.123-3.206 0-2.199 1.97-4.007 4.467-4.007 2.565 0 4.443 1.717 4.443 3.984 0 1.764-1.1 2.726-3.595 3.871a84.807 84.807 0 0 0 2.427 2.703 15.112 15.112 0 0 0 1.535-2.887l2.427 1.146c-.687 1.374-1.397 2.611-2.176 3.642l2.474 2.61-2.749 1.237zm-3.434-3.595a84.897 84.897 0 0 1-3.23-3.574c-1.077.642-1.558 1.375-1.558 2.291 0 1.397 1.077 2.244 2.382 2.244.824 0 1.626-.366 2.406-.961zm-2.956-8.704c0 .733.367 1.329 1.008 2.13 1.534-.618 2.154-1.1 2.154-2.13 0-.915-.62-1.603-1.512-1.603-.916 0-1.65.664-1.65 1.603zm16.332-3.801h5.635c5.29 0 9.047 3.252 9.047 7.855s-3.757 7.88-9.047 7.88h-5.635V23.895zm6.07 12.665c3.023 0 5.13-1.993 5.13-4.81 0-2.794-2.107-4.787-5.13-4.787h-2.702v9.597h2.702zm19.333-.412l1.878 1.923c-1.054 1.1-3.092 1.832-4.833 1.832-3.527 0-6.344-2.588-6.344-6.23 0-3.571 2.702-6.16 6.161-6.16 3.71 0 5.954 2.68 5.954 7.077h-8.931c.297 1.603 1.42 2.725 3.045 2.725 1.077 0 2.314-.48 3.07-1.168zm-6.093-3.55h5.703c-.274-1.466-1.214-2.496-2.725-2.496-1.489 0-2.612.984-2.978 2.496zm9.873 5.519l1.35-2.107c1.238.871 2.796 1.443 4.054 1.443 1.123 0 1.718-.412 1.718-1.1 0-.755-.962-1.075-2.244-1.396-2.45-.595-4.33-1.26-4.33-3.596 0-2.245 1.834-3.848 4.628-3.848 1.694 0 3.344.596 4.672 1.466l-1.237 2.153c-1.053-.688-2.335-1.214-3.435-1.214-.894 0-1.58.435-1.58 1.1 0 .64.664.824 2.244 1.26 2.062.526 4.33 1.213 4.33 3.801 0 2.336-1.925 3.825-4.834 3.825-1.878 0-3.893-.641-5.336-1.787zm11.911-13.788c0-.938.802-1.786 1.832-1.786.985 0 1.81.848 1.81 1.786 0 1.008-.825 1.833-1.81 1.833a1.824 1.824 0 0 1-1.832-1.833zm.137 3.46h3.345v11.84h-3.345V27.79zm17.819 0v10.58c0 3.046-2.635 5.2-6.367 5.2-2.085 0-4.031-.664-5.223-1.58l1.168-2.36c.78.688 2.176 1.122 3.551 1.122 2.152 0 3.527-.984 3.527-2.52v-1.327c-.939 1.168-2.336 1.855-3.916 1.855-3 0-5.268-2.336-5.268-5.635s2.268-5.611 5.268-5.611c1.58 0 3.115.756 3.916 1.878v-1.603h3.344zm-3.344 5.335c0-1.648-1.19-2.794-2.863-2.794s-2.863 1.146-2.863 2.794c0 1.65 1.191 2.818 2.863 2.818s2.863-1.168 2.863-2.818zm17.248-1.03v7.535h-3.207v-6.825c0-1.466-.915-2.474-2.244-2.474-1.397 0-2.496 1.008-2.496 2.29v7.01h-3.344V27.788h3.344v1.466c.71-1.054 2.038-1.741 3.573-1.741 2.565 0 4.375 1.878 4.375 4.581zM41.204 19.441v.106c0 6.425 4.697 11.776 11.39 11.776v8.306c-6.208 0-11.509-2.602-15.1-6.749l2.556 6.095h-9.217l-3.013-7.932H12.017l-3.015 7.932H0l3.347-7.97c8.756-3.97 18.58-7.327 29.201-9.914a18.742 18.742 0 0 1-.034-1.165v-.109C32.514 8.921 40.935 0 52.594 0v7.774c-6.693 0-11.39 5.244-11.39 11.667m-9.938-1.404c-2.489.343-5.161.737-7.935 1.188l-3.413-8.983-3.9 10.268a262.918 262.918 0 0 0-9.053 1.863L16.195.384h7.662l7.409 17.653z" class="cls-1"/></svg>